<svg xmlns="http://www.w3.org/2000/svg" viewBox="0 0 24 24" aria-hidden="true">
  <defs>
    <style>
      .color { fill: #141416; } /* light */
      @media (prefers-color-scheme: dark) {
        .color { fill: #ffffff; } /* dark */
      }
    </style>
  </defs>
  <path class="color" d="M20.447 20.452H16.89v-5.569c0-1.328-.027-3.037-1.852-3.037-1.853 0-2.136 1.445-2.136 2.939v5.667H9.345V9h3.41v1.561h.047c.475-.9 1.637-1.852 3.37-1.852 3.601 0 4.267 2.37 4.267 5.455v6.288zM5.337 7.433a1.986 1.986 0 1 1 0-3.973 1.986 1.986 0 0 1 0 3.973zM7.119 20.452H3.554V9h3.565v11.452zM22.225 0H1.771C.792 0 0 .774 0 1.729v20.542C0 23.226.792 24 1.771 24h20.451C23.2 24 24 23.226 24 22.271V1.729C24 .774 23.2 0 22.225 0z"/>
</svg>
